<?xml version="1.0" encoding="UTF-8" standalone="no"?>
<!-- Created with Inkscape (http://www.inkscape.org/) -->

<svg
   xmlns:dc="http://purl.org/dc/elements/1.1/"
   xmlns:cc="http://creativecommons.org/ns#"
   xmlns:rdf="http://www.w3.org/1999/02/22-rdf-syntax-ns#"
   xmlns:svg="http://www.w3.org/2000/svg"
   xmlns="http://www.w3.org/2000/svg"
   xmlns:sodipodi="http://sodipodi.sourceforge.net/DTD/sodipodi-0.dtd"
   xmlns:inkscape="http://www.inkscape.org/namespaces/inkscape"
   width="744.09448819"
   height="1052.3622047"
   id="svg2"
   version="1.1"
   inkscape:version="0.48.0 r9654"
   sodipodi:docname="markus-projet-etudiant_05.svg"
   inkscape:export-filename="/home/nelle/Projets/RMLL-talks/markus/images/markus-projet-etudiant_05.png"
   inkscape:export-xdpi="90"
   inkscape:export-ydpi="90">
  <defs
     id="defs4">
    <inkscape:perspective
       sodipodi:type="inkscape:persp3d"
       inkscape:vp_x="0 : 526.18109 : 1"
       inkscape:vp_y="0 : 1000 : 0"
       inkscape:vp_z="744.09448 : 526.18109 : 1"
       inkscape:persp3d-origin="372.04724 : 350.78739 : 1"
       id="perspective3906" />
  </defs>
  <sodipodi:namedview
     id="base"
     pagecolor="#ffffff"
     bordercolor="#666666"
     borderopacity="1.0"
     inkscape:pageopacity="0.0"
     inkscape:pageshadow="2"
     inkscape:zoom="0.7"
     inkscape:cx="255.35694"
     inkscape:cy="598.17994"
     inkscape:document-units="px"
     inkscape:current-layer="layer1"
     showgrid="false"
     inkscape:window-width="1280"
     inkscape:window-height="771"
     inkscape:window-x="0"
     inkscape:window-y="1"
     inkscape:window-maximized="1"
     inkscape:snap-grids="true"
     showguides="true"
     inkscape:snap-global="false">
    <inkscape:grid
       type="xygrid"
       id="grid3115" />
  </sodipodi:namedview>
  <metadata
     id="metadata7">
    <rdf:RDF>
      <cc:Work
         rdf:about="">
        <dc:format>image/svg+xml</dc:format>
        <dc:type
           rdf:resource="http://purl.org/dc/dcmitype/StillImage" />
        <dc:title></dc:title>
      </cc:Work>
    </rdf:RDF>
  </metadata>
  <g
     inkscape:label="Layer 1"
     inkscape:groupmode="layer"
     id="layer1">
    <rect
       style="opacity:0.96999996000000011;fill:#ffffff;stroke:none;stroke-width:3;stroke-miterlimit:4;stroke-opacity:1;stroke-dasharray:12, 3;stroke-dashoffset:0"
       id="rect4247"
       width="751.42859"
       height="508.57144"
       x="15.714286"
       y="305.21933" />
    <path
       inkscape:connector-curvature="0"
       style="fill:#800000;fill-rule:evenodd;stroke:#000000;stroke-width:0.88762331px;stroke-linecap:butt;stroke-linejoin:miter;stroke-opacity:1"
       d="m 160.1817,470.6717 23.55647,8.18364 c 21.80938,-62.77802 81.22091,-101.75385 144.25338,-100.50838 l -0.10577,5.25636 15.5717,-16.15982 -14.8403,-18.32232 -0.0846,4.33752 c -75.57905,-1.49716 -143.54195,45.80047 -168.35099,117.21298 z"
       id="path2989-3-2-0-0-9-4" />
    <path
       inkscape:connector-curvature="0"
       style="fill:#004455;fill-rule:evenodd;stroke:#000000;stroke-width:0.88762331px;stroke-linecap:butt;stroke-linejoin:miter;stroke-opacity:1"
       d="m 221.37071,667.93206 14.7956,-20.07411 C 182.66876,608.42773 163.04559,540.13588 182.91061,480.30259 l 4.989,1.65842 -10.82061,-19.66041 -21.89658,8.74538 4.11776,1.36574 c -23.82279,71.74196 1.21496,150.66684 62.07053,195.5203 z"
       id="path2989-3-2-0-0-9" />
    <path
       inkscape:connector-curvature="0"
       style="fill:#00002b;fill-rule:evenodd;stroke:#000000;stroke-width:0.88762331000000005px;stroke-linecap:butt;stroke-linejoin:miter;stroke-opacity:1"
       d="M 426.3686,669.81382 411.92302,649.4864 c -54.1726,38.49752 -125.17654,35.79832 -175.80627,-1.7686 l 3.13434,-4.22095 -22.05712,4.1353 1.46524,23.53285 2.58405,-3.48481 c 60.70535,45.0477 143.50181,45.92608 205.1253,2.13363 z"
       id="path2989-3-2-0-0" />
    <path
       inkscape:connector-curvature="0"
       style="fill:#440055;fill-rule:evenodd;stroke:#000000;stroke-width:0.88762331000000005px;stroke-linecap:butt;stroke-linejoin:miter;stroke-opacity:1"
       d="m 491.29802,472.92612 -23.70135,7.75403 c 20.66451,63.16413 -3.00812,130.16004 -53.92087,167.3425 l -3.09914,-4.24687 -2.60461,22.28977 22.9056,5.59249 -2.55975,-3.50271 c 61.04922,-44.58056 86.48681,-123.37749 62.98012,-195.22921 z"
       id="path2989-3-2-0" />
    <path
       style="fill:#501616;fill-rule:evenodd;stroke:#000000;stroke-width:0.88762331px;stroke-linecap:butt;stroke-linejoin:miter;stroke-opacity:1"
       d="M 325.1875 352.78125 L 325.1875 377.71875 C 391.64595 377.71875 447.96015 421.04952 467.46875 481 L 462.46875 482.625 L 482.84375 492.03125 L 495.28125 472 L 491.15625 473.34375 C 467.76809 401.45891 400.78665 352.78125 325.1875 352.78125 z "
       id="path2989-3-2" />
    <path
       style="fill:#800000;fill-rule:evenodd;stroke:#000000;stroke-width:0.88762331000000005px;stroke-linecap:butt;stroke-linejoin:miter;stroke-opacity:1"
       d="m 328.59375,348.8571 -0.0937,4.34375 C 285.2724,352.34455 244.5643,367.46911 212.9688,393.9196 l 0,4.9375 36.03125,0 c 23.61425,-13.91745 50.93084,-21.30401 78.96875,-20.75 l -0.0937,5.25 15.5625,-16.15625 -14.84375,-18.34375 z"
       id="path2989-3-2-0-0-9-4-9"
       inkscape:connector-curvature="0" />
    <path
       style="fill:#800000;stroke:none"
       d="m 204.82143,402.18361 c 9.19642,-9.28571 14.16587,-12.63278 19.77678,-16.60714 12.51476,5.5678 26.164,4.07718 38.66005,4.96718 -11.0861,5.83726 -18.38411,10.59981 -27.32362,16.38896 z"
       id="path4134"
       inkscape:connector-curvature="0"
       sodipodi:nodetypes="ccccc" />
    <text
       xml:space="preserve"
       style="font-size:24px;font-style:normal;font-weight:normal;line-height:125%;letter-spacing:0px;word-spacing:0px;fill:#000000;fill-opacity:1;stroke:none;font-family:Bitstream Vera Sans"
       x="458.57144"
       y="380.21933"
       id="text2996"
       sodipodi:linespacing="125%"><tspan
         sodipodi:role="line"
         id="tspan2998"
         x="458.57144"
         y="380.21933">L'idée</tspan></text>
    <text
       xml:space="preserve"
       style="font-size:24px;font-style:normal;font-weight:normal;line-height:125%;letter-spacing:0px;word-spacing:0px;fill:#000000;fill-opacity:1;stroke:none;font-family:Bitstream Vera Sans"
       x="522.85718"
       y="573.07648"
       id="text3000"
       sodipodi:linespacing="125%"><tspan
         sodipodi:role="line"
         id="tspan3002"
         x="522.85718"
         y="573.07648">Rédaction du</tspan><tspan
         sodipodi:role="line"
         x="522.85718"
         y="598.07648"
         id="tspan3012">cahier des charges</tspan></text>
    <text
       xml:space="preserve"
       style="font-size:24px;font-style:normal;font-weight:normal;line-height:125%;letter-spacing:0px;word-spacing:0px;fill:#000000;fill-opacity:1;stroke:none;font-family:Bitstream Vera Sans"
       x="234.28572"
       y="741.64795"
       id="text3004"
       sodipodi:linespacing="125%"><tspan
         sodipodi:role="line"
         id="tspan3006"
         x="234.28572"
         y="741.64795">Implémentation</tspan></text>
    <text
       xml:space="preserve"
       style="font-size:40px;font-style:normal;font-weight:normal;line-height:125%;letter-spacing:0px;word-spacing:0px;fill:#000000;fill-opacity:1;stroke:none;font-family:Bitstream Vera Sans"
       x="-99.285713"
       y="592.36218"
       id="text3008"
       sodipodi:linespacing="125%"><tspan
         sodipodi:role="line"
         id="tspan3010"
         x="-99.285713"
         y="592.36218" /></text>
    <text
       xml:space="preserve"
       style="font-size:24px;font-style:normal;font-weight:normal;line-height:125%;letter-spacing:0px;word-spacing:0px;fill:#000000;fill-opacity:1;stroke:none;font-family:Bitstream Vera Sans"
       x="76.428566"
       y="575.93365"
       id="text3014"
       sodipodi:linespacing="125%"><tspan
         sodipodi:role="line"
         id="tspan3016"
         x="76.428566"
         y="575.93365">QA</tspan></text>
    <text
       xml:space="preserve"
       style="font-size:24px;font-style:normal;font-weight:normal;line-height:125%;letter-spacing:0px;word-spacing:0px;fill:#000000;fill-opacity:1;stroke:none;font-family:Bitstream Vera Sans"
       x="65.714287"
       y="368.07648"
       id="text3018"
       sodipodi:linespacing="125%"><tspan
         sodipodi:role="line"
         id="tspan3020"
         x="65.714287"
         y="368.07648">Intégration</tspan><tspan
         sodipodi:role="line"
         x="65.714287"
         y="398.07648"
         id="tspan3022">du code</tspan></text>
    <path
       inkscape:connector-curvature="0"
       d="m 259.89706,584.7717 c 17.04469,-14.81548 25.47621,-29.70811 32.16977,-47.84029 0.2833,2.87267 2.17561,17.73743 6.84283,23.67954 -4.05275,8.31311 -10.0646,16.88004 -16.50904,23.99731 l -22.50356,0.16344 z m 96.28396,-0.56776 c -11.38195,-7.90658 -27.47092,-26.0557 -26.63976,-42.63469 3.50185,-5.53654 7.92941,-13.23494 14.8565,-21.34622 l 0.028,8.6272 c 0.27644,24.42493 17.82976,44.59689 39.03633,55.27792 0.9038,0.22156 -4.98118,0.44574 -13.07774,0.49816 -8.09655,0.0524 -14.48806,-0.13764 -14.20334,-0.42237 z m -63.38476,-60.64823 c 7.57111,-1.22256 10.73184,-3.8908 15.58613,-6.35755 1.19252,3.41003 4.29876,7.993 6.38521,12.00868 18.89174,-23.113 44.07805,-41.92822 70.36096,-57.62081 1.33644,1.46439 1.76904,2.42663 3.09455,4.2414 -58.07701,40.60546 -65.77448,79.38967 -80.03067,83.00867 -10.02507,3.57214 -13.65128,-24.67388 -15.39618,-35.28039 z"
       id="path3029"
       style="fill:#b3b3b3" />
  </g>
</svg>
