<?xml version="1.0" encoding="UTF-8" standalone="no"?>
<!-- Created with Inkscape (http://www.inkscape.org/) -->

<svg
   xmlns:dc="http://purl.org/dc/elements/1.1/"
   xmlns:cc="http://creativecommons.org/ns#"
   xmlns:rdf="http://www.w3.org/1999/02/22-rdf-syntax-ns#"
   xmlns:svg="http://www.w3.org/2000/svg"
   xmlns="http://www.w3.org/2000/svg"
   xmlns:sodipodi="http://sodipodi.sourceforge.net/DTD/sodipodi-0.dtd"
   xmlns:inkscape="http://www.inkscape.org/namespaces/inkscape"
   width="744.09448819"
   height="1052.3622047"
   id="svg2"
   version="1.1"
   inkscape:version="0.48.0 r9654"
   sodipodi:docname="markus-projet-etudiant_01.svg"
   inkscape:export-filename="/home/nelle/Projets/RMLL-talks/markus/images/markus-projet-etudiant_01.png"
   inkscape:export-xdpi="90"
   inkscape:export-ydpi="90">
  <defs
     id="defs4">
    <inkscape:perspective
       sodipodi:type="inkscape:persp3d"
       inkscape:vp_x="0 : 526.18109 : 1"
       inkscape:vp_y="0 : 1000 : 0"
       inkscape:vp_z="744.09448 : 526.18109 : 1"
       inkscape:persp3d-origin="372.04724 : 350.78739 : 1"
       id="perspective3906" />
  </defs>
  <sodipodi:namedview
     id="base"
     pagecolor="#ffffff"
     bordercolor="#666666"
     borderopacity="1.0"
     inkscape:pageopacity="0.0"
     inkscape:pageshadow="2"
     inkscape:zoom="0.7"
     inkscape:cx="255.35694"
     inkscape:cy="369.60851"
     inkscape:document-units="px"
     inkscape:current-layer="layer1"
     showgrid="false"
     inkscape:window-width="1280"
     inkscape:window-height="771"
     inkscape:window-x="0"
     inkscape:window-y="1"
     inkscape:window-maximized="1"
     inkscape:snap-grids="true"
     showguides="true"
     inkscape:snap-global="false">
    <inkscape:grid
       type="xygrid"
       id="grid3115" />
  </sodipodi:namedview>
  <metadata
     id="metadata7">
    <rdf:RDF>
      <cc:Work
         rdf:about="">
        <dc:format>image/svg+xml</dc:format>
        <dc:type
           rdf:resource="http://purl.org/dc/dcmitype/StillImage" />
        <dc:title></dc:title>
      </cc:Work>
    </rdf:RDF>
  </metadata>
  <g
     inkscape:label="Layer 1"
     inkscape:groupmode="layer"
     id="layer1">
    <rect
       style="opacity:0.96999996000000011;fill:#ffffff;stroke:none;stroke-width:3;stroke-miterlimit:4;stroke-opacity:1;stroke-dasharray:12, 3;stroke-dashoffset:0"
       id="rect4247"
       width="751.42859"
       height="508.57144"
       x="15.714286"
       y="305.21933" />
    <path
       style="fill:#501616;fill-rule:evenodd;stroke:#000000;stroke-width:0.88762331px;stroke-linecap:butt;stroke-linejoin:miter;stroke-opacity:1"
       d="M 325.1875 352.78125 L 325.1875 377.71875 C 391.64595 377.71875 447.96015 421.04952 467.46875 481 L 462.46875 482.625 L 482.84375 492.03125 L 495.28125 472 L 491.15625 473.34375 C 467.76809 401.45891 400.78665 352.78125 325.1875 352.78125 z "
       id="path2989-3-2" />
    <text
       xml:space="preserve"
       style="font-size:24px;font-style:normal;font-weight:normal;line-height:125%;letter-spacing:0px;word-spacing:0px;fill:#000000;fill-opacity:1;stroke:none;font-family:Bitstream Vera Sans"
       x="458.57144"
       y="380.21933"
       id="text2996"
       sodipodi:linespacing="125%"><tspan
         sodipodi:role="line"
         id="tspan2998"
         x="458.57144"
         y="380.21933">L'idée</tspan></text>
    <text
       xml:space="preserve"
       style="font-size:40px;font-style:normal;font-weight:normal;line-height:125%;letter-spacing:0px;word-spacing:0px;fill:#000000;fill-opacity:1;stroke:none;font-family:Bitstream Vera Sans"
       x="-99.285713"
       y="592.36218"
       id="text3008"
       sodipodi:linespacing="125%"><tspan
         sodipodi:role="line"
         id="tspan3010"
         x="-99.285713"
         y="592.36218" /></text>
    <path
       inkscape:connector-curvature="0"
       d="m 259.89706,584.7717 c 17.04469,-14.81548 25.47621,-29.70811 32.16977,-47.84029 0.2833,2.87267 2.17561,17.73743 6.84283,23.67954 -4.05275,8.31311 -10.0646,16.88004 -16.50904,23.99731 l -22.50356,0.16344 z m 96.28396,-0.56776 c -11.38195,-7.90658 -27.47092,-26.0557 -26.63976,-42.63469 3.50185,-5.53654 7.92941,-13.23494 14.8565,-21.34622 l 0.028,8.6272 c 0.27644,24.42493 17.82976,44.59689 39.03633,55.27792 0.9038,0.22156 -4.98118,0.44574 -13.07774,0.49816 -8.09655,0.0524 -14.48806,-0.13764 -14.20334,-0.42237 z m -63.38476,-60.64823 c 7.57111,-1.22256 10.73184,-3.8908 15.58613,-6.35755 1.19252,3.41003 4.29876,7.993 6.38521,12.00868 18.89174,-23.113 44.07805,-41.92822 70.36096,-57.62081 1.33644,1.46439 1.76904,2.42663 3.09455,4.2414 -58.07701,40.60546 -65.77448,79.38967 -80.03067,83.00867 -10.02507,3.57214 -13.65128,-24.67388 -15.39618,-35.28039 z"
       id="path3029"
       style="fill:#b3b3b3" />
  </g>
</svg>
